<svg aria-hidden="true" style="position: absolute; width: 0; height: 0; overflow: hidden;" version="1.1" xmlns="http://www.w3.org/2000/svg" xmlns:xlink="http://www.w3.org/1999/xlink">
<defs>
<symbol id="icon-link" viewBox="0 0 32 32">
<path stroke-linejoin="round" stroke-linecap="round" stroke-miterlimit="4" stroke-width="2.25" d="M13 22h-4c-3.314 0-6-2.686-6-6s2.686-6 6-6v0h4M19 10h4c3.314 0 6 2.686 6 6s-2.686 6-6 6v0h-4M10.206 16h11.714"></path>
</symbol>
<symbol id="icon-map" viewBox="0 0 32 32">
<path stroke-linejoin="round" stroke-linecap="round" stroke-miterlimit="4" stroke-width="2" d="M28 4l-24 11.009h12.5c0.276 0 0.5 0.224 0.5 0.5v0 12.491z"></path>
</symbol>
<symbol id="icon-checkmark" viewBox="0 0 27 32">
<path d="M13.333 27.111c6.136 0 11.111-4.974 11.111-11.111s-4.974-11.111-11.111-11.111v0c-6.136 0-11.111 4.974-11.111 11.111s4.974 11.111 11.111 11.111v0zM13.333 29.333c-7.364 0-13.333-5.969-13.333-13.333s5.969-13.333 13.333-13.333 13.333 5.969 13.333 13.333-5.969 13.333-13.333 13.333zM11.741 18.935l-4.289-4.287-1.571 1.573 5.861 5.857 9.421-9.443-1.573-1.569-7.849 7.868z"></path>
</symbol>
<symbol id="icon-sunny" viewBox="0 0 32 32">
<path d="M16 24.188c-0.531 0-0.963 0.431-0.963 0.962v2.887c0 0.531 0.431 0.962 0.963 0.962s0.962-0.431 0.962-0.962v-2.887c0-0.531-0.431-0.962-0.963-0.962zM16 3c-0.531 0-0.963 0.431-0.963 0.962v2.887c0 0.531 0.431 0.963 0.963 0.963s0.962-0.431 0.962-0.963v-2.888c0-0.531-0.431-0.962-0.963-0.962zM7.813 16c0-0.531-0.431-0.963-0.963-0.963h-2.888c-0.531 0-0.962 0.431-0.962 0.963s0.431 0.962 0.962 0.962h2.888c0.531 0 0.963-0.431 0.963-0.963zM28.038 15.037h-2.887c-0.531 0-0.962 0.431-0.962 0.963s0.431 0.962 0.962 0.962h2.887c0.531 0 0.962-0.431 0.962-0.963s-0.431-0.963-0.962-0.963zM9.531 21.506c-0.256 0-0.5 0.1-0.681 0.281l-2.044 2.044c-0.181 0.181-0.281 0.425-0.281 0.681s0.1 0.5 0.281 0.681c0.181 0.181 0.425 0.281 0.681 0.281s0.5-0.1 0.681-0.281l2.044-2.044c0.375-0.375 0.375-0.988 0-1.363-0.181-0.181-0.425-0.281-0.681-0.281zM22.469 10.494c0.256 0 0.5-0.1 0.681-0.281l2.044-2.044c0.181-0.181 0.281-0.425 0.281-0.681s-0.1-0.5-0.281-0.681c-0.181-0.181-0.425-0.281-0.681-0.281s-0.5 0.1-0.681 0.281l-2.044 2.044c-0.181 0.181-0.281 0.425-0.281 0.681s0.1 0.5 0.281 0.681c0.181 0.181 0.425 0.281 0.681 0.281zM8.169 6.806c-0.181-0.181-0.425-0.281-0.681-0.281s-0.5 0.1-0.681 0.281c-0.181 0.181-0.281 0.425-0.281 0.681s0.1 0.5 0.281 0.681l2.044 2.044c0.181 0.181 0.425 0.281 0.681 0.281s0.5-0.1 0.681-0.281c0.181-0.181 0.281-0.425 0.281-0.681s-0.1-0.5-0.281-0.681l-2.044-2.044zM23.15 21.788c-0.181-0.181-0.425-0.281-0.681-0.281s-0.5 0.1-0.681 0.281c-0.375 0.375-0.375 0.988 0 1.363l2.044 2.044c0.181 0.181 0.425 0.281 0.681 0.281s0.5-0.1 0.681-0.281c0.181-0.181 0.281-0.425 0.281-0.681s-0.1-0.5-0.281-0.681l-2.044-2.044zM16 10c-3.306 0-6 2.694-6 6s2.694 6 6 6 6-2.694 6-6-2.694-6-6-6z"></path>
</symbol>
<symbol id="icon-moon" viewBox="0 0 32 32">
<path d="M12.188 7.813c0-1.644 0.331-3.206 0.931-4.631-5.7 1.381-9.931 6.513-9.931 12.631 0 7.175 5.825 13 13 13 6.119 0 11.25-4.231 12.631-9.931-1.425 0.6-2.994 0.931-4.631 0.931-6.625 0-12-5.375-12-12z"></path>
</symbol>
<symbol id="icon-arrow" viewBox="0 0 32 32">
<path d="M5.313 17.336h16.232l-7.481 7.481 1.937 1.87 10.688-10.688-10.688-10.688-1.87 1.87 7.414 7.481h-16.232v2.672z"></path>
</symbol>
<symbol id="icon-close" viewBox="0 0 32 32">
<path d="M25.313 8.55l-1.862-1.862-7.45 7.45-7.45-7.45-1.862 1.862 7.45 7.45-7.45 7.45 1.862 1.862 7.45-7.45 7.45 7.45 1.862-1.862-7.45-7.45z"></path>
</symbol>
<symbol id="icon-comments" viewBox="0 0 32 32">
<path d="M26.938 20.038c0-0.275 0.075-0.538 0.206-0.762 0.038-0.069 0.087-0.131 0.131-0.194 1.087-1.625 1.725-3.569 1.725-5.644 0.019-5.763-4.844-10.438-10.856-10.438-5.244 0-9.619 3.569-10.644 8.306-0.15 0.694-0.231 1.4-0.231 2.138 0 5.769 4.675 10.569 10.688 10.569 0.956 0 2.244-0.288 2.95-0.481s1.406-0.45 1.587-0.519c0.181-0.069 0.381-0.106 0.581-0.106 0.225 0 0.438 0.044 0.631 0.125l3.544 1.256s0.15 0.063 0.244 0.063c0.275 0 0.5-0.219 0.5-0.5 0-0.063-0.031-0.169-0.031-0.169l-1.025-3.644z"></path>
<path d="M19.906 24.531c-0.225 0.063-0.512 0.131-0.825 0.2-0.656 0.137-1.494 0.281-2.125 0.281-6.012 0-10.688-4.8-10.688-10.569 0-0.412 0.044-0.938 0.094-1.338 0.037-0.269 0.081-0.537 0.144-0.8 0.063-0.281 0.138-0.563 0.219-0.838l-0.5 0.444c-2.050 1.787-3.225 4.338-3.225 6.994 0 1.831 0.531 3.594 1.55 5.125 0.144 0.219 0.225 0.387 0.2 0.5s-0.744 3.875-0.744 3.875c-0.038 0.181 0.031 0.363 0.169 0.481 0.094 0.075 0.206 0.113 0.319 0.113 0.063 0 0.125-0.012 0.181-0.038l3.506-1.381c0.113-0.044 0.231-0.069 0.356-0.069 0 0 0.15-0.012 0.394 0.081 1.181 0.462 2.487 0.75 3.794 0.75 2.912 0 5.65-1.256 7.506-3.444 0 0 0.2-0.275 0.431-0.6-0.231 0.081-0.494 0.163-0.756 0.231z"></path>
</symbol>
<symbol id="icon-star" viewBox="0 0 32 32">
<path d="M28.938 12h-9.194l-2.794-8.338c-0.137-0.406-0.519-0.663-0.95-0.663s-0.813 0.256-0.95 0.663l-2.794 8.338h-9.256c-0.55 0-1 0.45-1 1 0 0.056 0.006 0.119 0.019 0.169 0.013 0.219 0.112 0.463 0.419 0.706l7.556 5.325-2.9 8.431c-0.144 0.406 0 0.863 0.344 1.125 0.181 0.131 0.35 0.244 0.563 0.244 0.206 0 0.45-0.106 0.625-0.225l7.375-5.256 7.375 5.256c0.175 0.125 0.419 0.225 0.625 0.225 0.212 0 0.381-0.106 0.556-0.244 0.35-0.262 0.488-0.712 0.344-1.125l-2.9-8.431 7.494-5.375 0.181-0.156c0.163-0.175 0.325-0.412 0.325-0.669 0-0.55-0.512-1-1.063-1z"></path>
</symbol>
<symbol id="icon-search" viewBox="0 0 32 32">
<path d="M27.719 26.262l-6.675-6.738c1.306-1.637 2.094-3.713 2.094-5.969 0-5.281-4.281-9.563-9.569-9.563s-9.569 4.287-9.569 9.569 4.281 9.563 9.569 9.563c2.287 0 4.381-0.8 6.031-2.137l6.631 6.694c0.2 0.212 0.475 0.319 0.744 0.319 0.256 0 0.512-0.094 0.706-0.281 0.413-0.394 0.425-1.044 0.038-1.456zM13.569 21.069c-2.006 0-3.894-0.781-5.313-2.2s-2.2-3.306-2.2-5.306c0-2.006 0.781-3.894 2.2-5.306 1.419-1.419 3.306-2.2 5.313-2.2s3.894 0.781 5.313 2.2c1.419 1.419 2.2 3.306 2.2 5.306 0 2.006-0.781 3.894-2.2 5.306-1.419 1.419-3.306 2.2-5.313 2.2z"></path>
</symbol>
<symbol id="icon-send" viewBox="0 0 32 32">
<path d="M27.244 4.056l-22.944 10c-0.406 0.194-0.394 0.775 0.019 0.956l6.206 3.506c0.369 0.206 0.825 0.163 1.144-0.113l12.238-10.55c0.081-0.069 0.275-0.2 0.35-0.125 0.081 0.081-0.044 0.269-0.113 0.35l-10.588 11.925c-0.294 0.331-0.338 0.819-0.1 1.194l4.056 6.506c0.2 0.394 0.769 0.387 0.95-0.012l9.488-22.944c0.206-0.45-0.262-0.906-0.706-0.694z"></path>
</symbol>
<symbol id="icon-heart" viewBox="0 0 32 32">
<path d="M22 3.5h-0.063c-2.481 0-4.675 1.313-5.938 3.25-1.262-1.938-3.456-3.25-5.938-3.25h-0.063c-3.869 0.038-7 3.181-7 7.063 0 2.313 1.013 5.594 2.987 8.294 3.763 5.144 10.012 9.644 10.012 9.644s6.25-4.5 10.012-9.644c1.975-2.7 2.988-5.981 2.988-8.294 0-3.881-3.131-7.025-7-7.063z"></path>
</symbol>
<symbol id="icon-rss" viewBox="0 0 32 32">
<path d="M7.494 21.006c-1.925 0-3.494 1.569-3.494 3.488 0 1.925 1.569 3.475 3.494 3.475 1.931 0 3.494-1.556 3.494-3.475s-1.563-3.488-3.494-3.488z"></path>
<path d="M4 12v4.994c3 0 5.881 0.887 8 3.006s3 4.994 3 8h5c0-8.744-7.25-16-16-16z"></path>
<path d="M4 4v4.994c10.688 0 18.994 8.312 18.994 19.006h5.006c0-13.231-10.75-24-24-24z"></path>
</symbol>
<symbol id="icon-arrow-forward" viewBox="0 0 32 32">
<path d="M18.381 16l-7.944-7.938c-0.588-0.588-0.588-1.537 0-2.119s1.537-0.581 2.125 0l9 8.994c0.569 0.569 0.581 1.481 0.044 2.069l-9.037 9.056c-0.294 0.294-0.681 0.438-1.063 0.438s-0.769-0.144-1.063-0.438c-0.588-0.587-0.588-1.538 0-2.119l7.938-7.944z"></path>
</symbol>
<symbol id="icon-twitter" viewBox="0 0 24 24">
<path d="M12 0c-6.627 0-12 5.373-12 12s5.373 12 12 12 12-5.373 12-12-5.373-12-12-12zm6.066 9.645c.183 4.04-2.83 8.544-8.164 8.544-1.622 0-3.131-.476-4.402-1.291 1.524.18 3.045-.244 4.252-1.189-1.256-.023-2.317-.854-2.684-1.995.451.086.895.061 1.298-.049-1.381-.278-2.335-1.522-2.304-2.853.388.215.83.344 1.301.359-1.279-.855-1.641-2.544-.889-3.835 1.416 1.738 3.533 2.881 5.92 3.001-.419-1.796.944-3.527 2.799-3.527.825 0 1.572.349 2.096.907.654-.128 1.27-.368 1.824-.697-.215.671-.67 1.233-1.263 1.589.581-.07 1.135-.224 1.649-.453-.384.578-.87 1.084-1.433 1.489z"/>
</symbol>
<symbol id="icon-linkedin" viewBox="0 0 24 24">
<path d="M12 0c-6.627 0-12 5.373-12 12s5.373 12 12 12 12-5.373 12-12-5.373-12-12-12zm-2 16h-2v-6h2v6zm-1-6.891c-.607 0-1.1-.496-1.1-1.109 0-.612.492-1.109 1.1-1.109s1.1.497 1.1 1.109c0 .613-.493 1.109-1.1 1.109zm8 6.891h-1.998v-2.861c0-1.881-2.002-1.722-2.002 0v2.861h-2v-6h2v1.093c.872-1.616 4-1.736 4 1.548v3.359z"/>
</symbol>
<symbol id="icon-facebook" viewBox="0 0 32 32">
<path d="M26.675 4h-21.35c-0.731 0-1.325 0.594-1.325 1.325v21.35c0 0.731 0.594 1.325 1.325 1.325h10.675v-9.5h-2.869v-3.5h2.869v-2.588c0-3.1 2.15-4.787 4.919-4.787 1.325 0 2.75 0.1 3.081 0.144v3.237h-2.206c-1.506 0-1.794 0.713-1.794 1.762v2.231h3.587l-0.469 3.5h-3.119v9.5h6.675c0.731 0 1.325-0.594 1.325-1.325v-21.35c0-0.731-0.594-1.325-1.325-1.325z"></path>
</symbol>
<symbol id="icon-github" viewBox="0 0 24 24">
<path d="M12 0c-6.626 0-12 5.373-12 12 0 5.302 3.438 9.8 8.207 11.387.599.111.793-.261.793-.577v-2.234c-3.338.726-4.033-1.416-4.033-1.416-.546-1.387-1.333-1.756-1.333-1.756-1.089-.745.083-.729.083-.729 1.205.084 1.839 1.237 1.839 1.237 1.07 1.834 2.807 1.304 3.492.997.107-.775.418-1.305.762-1.604-2.665-.305-5.467-1.334-5.467-5.931 0-1.311.469-2.381 1.236-3.221-.124-.303-.535-1.524.117-3.176 0 0 1.008-.322 3.301 1.23.957-.266 1.983-.399 3.003-.404 1.02.005 2.047.138 3.006.404 2.291-1.552 3.297-1.23 3.297-1.23.653 1.653.242 2.874.118 3.176.77.84 1.235 1.911 1.235 3.221 0 4.609-2.807 5.624-5.479 5.921.43.372.823 1.102.823 2.222v3.293c0 .319.192.694.801.576 4.765-1.589 8.199-6.086 8.199-11.386 0-6.627-5.373-12-12-12z"/>
</symbol>
<symbol id="icon-instagram" viewBox="0 0 32 32">
<path d="M21 6c1.325 0 2.581 0.525 3.531 1.469s1.469 2.206 1.469 3.531v10c0 1.325-0.525 2.581-1.469 3.531s-2.206 1.469-3.531 1.469h-10c-1.325 0-2.581-0.525-3.531-1.469s-1.469-2.206-1.469-3.531v-10c0-1.325 0.525-2.581 1.469-3.531s2.206-1.469 3.531-1.469h10zM21 4h-10c-3.85 0-7 3.15-7 7v10c0 3.85 3.15 7 7 7h10c3.85 0 7-3.15 7-7v-10c0-3.85-3.15-7-7-7z"></path>
<path d="M22.5 11c-0.831 0-1.5-0.669-1.5-1.5s0.669-1.5 1.5-1.5c0.825 0 1.5 0.669 1.5 1.5s-0.675 1.5-1.5 1.5zM16 12c2.206 0 4 1.794 4 4s-1.794 4-4 4-4-1.794-4-4 1.794-4 4-4zM16 10c-3.313 0-6 2.688-6 6s2.688 6 6 6 6-2.688 6-6-2.688-6-6-6z"></path>
</symbol>
<symbol id="icon-youtube" viewBox="0 0 32 32">
<path d="M12 0c-6.627 0-12 5.373-12 12s5.373 12 12 12 12-5.373 12-12-5.373-12-12-12zm4.441 16.892c-2.102.144-6.784.144-8.883 0-2.276-.156-2.541-1.27-2.558-4.892.017-3.629.285-4.736 2.558-4.892 2.099-.144 6.782-.144 8.883 0 2.277.156 2.541 1.27 2.559 4.892-.018 3.629-.285 4.736-2.559 4.892zm-6.441-7.234l4.917 2.338-4.917 2.346v-4.684z" />
</symbol>
<symbol id="icon-whatsapp" viewBox="0 0 32 32">
<path d="M16.254 2c-7.591 0-13.745 6.106-13.745 13.639 0 2.577 0.721 4.987 1.972 7.043l-2.481 7.318 7.61-2.418c1.969 1.080 4.234 1.697 6.644 1.697 7.592 0 13.746-6.107 13.746-13.639s-6.154-13.639-13.746-13.639zM23.089 20.819c-0.323 0.802-1.786 1.533-2.431 1.567s-0.663 0.5-4.178-1.027c-3.514-1.527-5.628-5.24-5.795-5.479s-1.361-1.94-1.297-3.653c0.065-1.713 1.003-2.522 1.338-2.858s0.718-0.397 0.952-0.401c0.277-0.005 0.456-0.008 0.661-0.001s0.512-0.043 0.778 0.665c0.266 0.708 0.903 2.447 0.984 2.624s0.132 0.383 0.006 0.611c-0.126 0.228-0.19 0.371-0.373 0.568s-0.386 0.44-0.55 0.591c-0.182 0.167-0.373 0.348-0.181 0.704s0.853 1.522 1.861 2.484c1.295 1.236 2.412 1.646 2.756 1.832 0.345 0.188 0.55 0.167 0.764-0.058 0.213-0.225 0.915-0.984 1.162-1.323s0.479-0.273 0.796-0.146c0.317 0.128 2.010 1.035 2.355 1.222s0.575 0.283 0.657 0.431c0.082 0.149 0.056 0.846-0.267 1.647z"></path>
</symbol>
<symbol id="icon-reddit" viewBox="0 0 28 28">
<path d="M28 13.219c0 1.219-0.688 2.266-1.703 2.781 0.125 0.484 0.187 0.984 0.187 1.5 0 4.937-5.578 8.937-12.453 8.937-6.859 0-12.437-4-12.437-8.937 0-0.5 0.063-1 0.172-1.469-1.047-0.516-1.766-1.578-1.766-2.812 0-1.719 1.391-3.109 3.109-3.109 0.891 0 1.687 0.375 2.266 0.984 2.109-1.469 4.922-2.422 8.047-2.531l1.813-8.141c0.063-0.281 0.359-0.469 0.641-0.406l5.766 1.266c0.375-0.75 1.172-1.281 2.078-1.281 1.297 0 2.344 1.047 2.344 2.328 0 1.297-1.047 2.344-2.344 2.344-1.281 0-2.328-1.047-2.328-2.328l-5.219-1.156-1.625 7.375c3.141 0.094 5.984 1.031 8.109 2.5 0.562-0.594 1.359-0.953 2.234-0.953 1.719 0 3.109 1.391 3.109 3.109zM6.531 16.328c0 1.297 1.047 2.344 2.328 2.344 1.297 0 2.344-1.047 2.344-2.344 0-1.281-1.047-2.328-2.344-2.328-1.281 0-2.328 1.047-2.328 2.328zM19.187 21.875c0.234-0.234 0.234-0.578 0-0.812-0.219-0.219-0.578-0.219-0.797 0-0.938 0.953-2.953 1.281-4.391 1.281s-3.453-0.328-4.391-1.281c-0.219-0.219-0.578-0.219-0.797 0-0.234 0.219-0.234 0.578 0 0.812 1.484 1.484 4.344 1.594 5.187 1.594s3.703-0.109 5.187-1.594zM19.141 18.672c1.281 0 2.328-1.047 2.328-2.344 0-1.281-1.047-2.328-2.328-2.328-1.297 0-2.344 1.047-2.344 2.328 0 1.297 1.047 2.344 2.344 2.344z"></path>
</symbol>
<symbol id="icon-spotify" viewBox="0 0 32 32">
<path d="M16 0c-8.803 0-16 7.197-16 16s7.197 16 16 16c8.803 0 16-7.197 16-16s-7.12-16-16-16zM23.36 23.12c-0.319 0.479-0.881 0.64-1.36 0.317-3.76-2.317-8.479-2.797-14.083-1.52-0.557 0.165-1.037-0.235-1.199-0.72-0.156-0.557 0.24-1.036 0.719-1.197 6.084-1.36 11.365-0.803 15.521 1.76 0.563 0.24 0.64 0.88 0.401 1.36zM25.281 18.719c-0.401 0.563-1.12 0.803-1.683 0.401-4.317-2.641-10.88-3.437-15.916-1.839-0.641 0.156-1.365-0.161-1.521-0.803-0.161-0.64 0.156-1.359 0.797-1.52 5.844-1.761 13.041-0.876 18 2.161 0.484 0.24 0.724 1.041 0.323 1.599zM25.443 14.24c-5.125-3.043-13.683-3.36-18.563-1.839-0.801 0.239-1.599-0.24-1.839-0.964-0.239-0.797 0.24-1.599 0.959-1.839 5.683-1.681 15.041-1.359 20.964 2.161 0.719 0.401 0.957 1.36 0.557 2.079-0.401 0.563-1.36 0.801-2.079 0.401z" />
</symbol>
<symbol id="icon-telegram" viewBox="0 0 24 24">
<path d="m12 0c-6.627 0-12 5.373-12 12s5.373 12 12 12 12-5.373 12-12c0-6.627-5.373-12-12-12zm5.894 8.221-1.97 9.28c-.145.658-.537.818-1.084.508l-3-2.21-1.446 1.394c-.14.18-.357.295-.6.295-.002 0-.003 0-.005 0l.213-3.054 5.56-5.022c.24-.213-.054-.334-.373-.121l-6.869 4.326-2.96-.924c-.64-.203-.658-.64.135-.954l11.566-4.458c.538-.196 1.006.128.832.941z"/>
</symbol>
</defs>
</svg>
